<?xml version="1.0" encoding="UTF-8"?>
<svg width="27px" height="27px" viewBox="0 0 27 27" version="1.1" xmlns="http://www.w3.org/2000/svg" xmlns:xlink="http://www.w3.org/1999/xlink">
    <!-- Generator: Sketch 47.1 (45422) - http://www.bohemiancoding.com/sketch -->
    <title>Facebook-color</title>
    <desc>Created with Sketch.</desc>
    <defs>
        <path d="M1.49019273,27 C0.666940869,27 0,26.3326452 0,25.5097141 L0,1.49018117 C0,0.667040459 0.667045635,0 1.49019273,0 L25.509912,0 C26.3328496,0 27,0.667040459 27,1.49018117 L27,25.5097141 C27,26.33275 26.3327448,27 25.509912,27 L18.6296092,27 L18.6296092,16.544112 L22.1391682,16.544112 L22.6646748,12.4692669 L18.6296092,12.4692669 L18.6296092,9.86773579 C18.6296092,8.68797411 18.9572128,7.88400545 20.6489754,7.88400545 L22.8067376,7.88306256 L22.8067376,4.23848843 C22.4335608,4.18882969 21.1526907,4.07788328 19.662498,4.07788328 C16.5514692,4.07788328 14.4215748,5.97685852 14.4215748,9.46417998 L14.4215748,12.4692669 L10.903006,12.4692669 L10.903006,16.544112 L14.4215748,16.544112 L14.4215748,27 L1.49019273,27 Z" id="path-1"></path>
    </defs>
    <g id="Symbols" stroke="none" stroke-width="1" fill="none" fill-rule="evenodd">
        <g id="HEADER" transform="translate(-707.000000, -30.000000)">
            <g id="LOGO-RS" transform="translate(707.000000, 30.000000)">
                <mask id="mask-2" fill="white">
                    <use xlink:href="#path-1"></use>
                </mask>
                <use id="Facebook" fill="#FCFAF1" xlink:href="#path-1"></use>
            </g>
        </g>
    </g>
</svg>