<?xml version="1.0" encoding="UTF-8"?>
<svg width="27px" height="27px" viewBox="0 0 27 27" version="1.1" xmlns="http://www.w3.org/2000/svg" xmlns:xlink="http://www.w3.org/1999/xlink">
    <!-- Generator: Sketch 47.1 (45422) - http://www.bohemiancoding.com/sketch -->
    <title>Instagram@2x</title>
    <desc>Created with Sketch.</desc>
    <defs></defs>
    <g id="Page-1" stroke="none" stroke-width="1" fill="none" fill-rule="evenodd">
        <g id="PAGE-PRODUIT" transform="translate(-1061.000000, -40.000000)" fill="#FFFFFF">
            <path d="M1074.50003,40 C1078.16638,40 1078.62611,40.0155406 1080.06603,40.0812399 C1081.50295,40.1467784 1082.48431,40.3750112 1083.34301,40.7087593 C1084.23076,41.0537074 1084.98362,41.5153173 1085.73418,42.265822 C1086.48468,43.0163802 1086.94629,43.7692427 1087.29129,44.656987 C1087.62499,45.5156865 1087.85322,46.4970497 1087.91876,47.9339673 C1087.98446,49.3738858 1088,49.8336201 1088,53.5000268 C1088,57.1663799 1087.98446,57.6261142 1087.91876,59.0660327 C1087.85322,60.5029503 1087.62499,61.4843135 1087.29129,62.343013 C1086.94629,63.2307573 1086.48468,63.9836198 1085.73418,64.734178 C1084.98362,65.4846827 1084.23076,65.9462926 1083.34301,66.2912943 C1082.48431,66.6249888 1081.50295,66.8532216 1080.06603,66.9187601 C1078.62611,66.9844594 1078.16638,67 1074.50003,67 C1070.83362,67 1070.37389,66.9844594 1068.93397,66.9187601 C1067.49705,66.8532216 1066.51569,66.6249888 1065.65699,66.2912943 C1064.76924,65.9462926 1064.01638,65.4846827 1063.26582,64.734178 C1062.51532,63.9836198 1062.05371,63.2307573 1061.70876,62.343013 C1061.37501,61.4843135 1061.14678,60.5029503 1061.08124,59.0660327 C1061.01554,57.6261142 1061,57.1663799 1061,53.5000268 C1061,49.8336201 1061.01554,49.3738858 1061.08124,47.9339673 C1061.14678,46.4970497 1061.37501,45.5156865 1061.70876,44.656987 C1062.05371,43.7692427 1062.51532,43.0163802 1063.26582,42.265822 C1064.01638,41.5153173 1064.76924,41.0537074 1065.65699,40.7087593 C1066.51569,40.3750112 1067.49705,40.1467784 1068.93397,40.0812399 C1070.37389,40.0155406 1070.83362,40 1074.50003,40 Z M1074.00003,42 C1070.41736,42 1069.99298,42.0136881 1068.57815,42.0782406 C1067.26995,42.1378931 1066.5595,42.3564769 1066.0867,42.5402279 C1065.4604,42.7836314 1065.01343,43.074384 1064.54393,43.5439344 C1064.07438,44.0134315 1063.78363,44.4603991 1063.54023,45.0866971 C1063.35648,45.5594963 1063.13789,46.2699469 1063.07824,47.5781474 C1063.01369,48.9929768 1063,49.4173617 1063,53.0000266 C1063,56.5826383 1063.01369,57.0070232 1063.07824,58.4218526 C1063.13789,59.7300531 1063.35648,60.4405037 1063.54023,60.9133029 C1063.78363,61.5396009 1064.07444,61.9865685 1064.54393,62.4560656 C1065.01343,62.925616 1065.4604,63.2163686 1066.0867,63.4597721 C1066.5595,63.6435231 1067.26995,63.8621069 1068.57815,63.9217594 C1069.99282,63.9863119 1070.4171,64 1074.00003,64 C1077.5829,64 1078.00724,63.9863119 1079.42185,63.9217594 C1080.73005,63.8621069 1081.4405,63.6435231 1081.9133,63.4597721 C1082.5396,63.2163686 1082.98657,62.925616 1083.45607,62.4560656 C1083.92562,61.9865685 1084.21637,61.5396009 1084.45977,60.9133029 C1084.64352,60.4405037 1084.86211,59.7300531 1084.92176,58.4218526 C1084.98631,57.0070232 1085,56.5826383 1085,53.0000266 C1085,49.4173617 1084.98631,48.9929768 1084.92176,47.5781474 C1084.86211,46.2699469 1084.64352,45.5594963 1084.45977,45.0866971 C1084.21637,44.4603991 1083.92562,44.0134315 1083.45607,43.5439344 C1082.98657,43.074384 1082.5396,42.7836314 1081.9133,42.5402279 C1081.4405,42.3564769 1080.73005,42.1378931 1079.42185,42.0782406 C1078.00702,42.0136881 1077.58264,42 1074.00003,42 Z M1075.00003,47 C1078.86602,47 1082,50.1339819 1082,54.0000271 C1082,57.8660181 1078.86602,61 1075.00003,61 C1071.13398,61 1068,57.8660181 1068,54.0000271 C1068,50.1339819 1071.13398,47 1075.00003,47 Z M1074.50003,58 C1076.98529,58 1079,55.985293 1079,53.5000268 C1079,51.014707 1076.98529,49 1074.50003,49 C1072.01471,49 1070,51.014707 1070,53.5000268 C1070,55.985293 1072.01471,58 1074.50003,58 Z M1083,46.5000248 C1083,47.3284597 1082.32841,48 1081.49998,48 C1080.67159,48 1080,47.3284597 1080,46.5000248 C1080,45.67159 1080.67159,45 1081.49998,45 C1082.32841,45 1083,45.67159 1083,46.5000248 Z" id="Instagram"></path>
        </g>
    </g>
</svg>