<?xml version="1.0" encoding="UTF-8"?>
<svg width="27px" height="27px" viewBox="0 0 27 27" version="1.1" xmlns="http://www.w3.org/2000/svg" xmlns:xlink="http://www.w3.org/1999/xlink">
    <!-- Generator: Sketch 47.1 (45422) - http://www.bohemiancoding.com/sketch -->
    <title>Instagram-color</title>
    <desc>Created with Sketch.</desc>
    <defs></defs>
    <g id="Symbols" stroke="none" stroke-width="1" fill="none" fill-rule="evenodd">
        <g id="HEADER" transform="translate(-823.000000, -30.000000)" fill="#FCFAF1">
            <g id="LOGO-RS" transform="translate(707.000000, 30.000000)">
                <path d="M129.500027,0 C133.16638,0 133.626114,0.015540617 135.066033,0.081239915 C136.50295,0.146778448 137.484314,0.375011164 138.343013,0.708759311 C139.230757,1.05370742 139.98362,1.51531733 140.734178,2.26582196 C141.484683,3.01638017 141.946293,3.76924268 142.291294,4.65698703 C142.624989,5.5156865 142.853222,6.49704966 142.91876,7.93396726 C142.984459,9.37388581 143,9.83362013 143,13.5000268 C143,17.1663799 142.984459,17.6261142 142.91876,19.0660327 C142.853222,20.5029503 142.624989,21.4843135 142.291294,22.343013 C141.946293,23.2307573 141.484683,23.9836198 140.734178,24.734178 C139.98362,25.4846827 139.230757,25.9462926 138.343013,26.2912943 C137.484314,26.6249888 136.50295,26.8532216 135.066033,26.9187601 C133.626114,26.9844594 133.16638,27 129.500027,27 C125.83362,27 125.373886,26.9844594 123.933967,26.9187601 C122.49705,26.8532216 121.515686,26.6249888 120.656987,26.2912943 C119.769243,25.9462926 119.01638,25.4846827 118.265822,24.734178 C117.515317,23.9836198 117.053707,23.2307573 116.708759,22.343013 C116.375011,21.4843135 116.146778,20.5029503 116.08124,19.0660327 C116.015541,17.6261142 116,17.1663799 116,13.5000268 C116,9.83362013 116.015541,9.37388581 116.08124,7.93396726 C116.146778,6.49704966 116.375011,5.5156865 116.708759,4.65698703 C117.053707,3.76924268 117.515317,3.01638017 118.265822,2.26582196 C119.01638,1.51531733 119.769243,1.05370742 120.656987,0.708759311 C121.515686,0.375011164 122.49705,0.146778448 123.933967,0.081239915 C125.373886,0.015540617 125.83362,0 129.500027,0 Z M129.500027,2.43242809 C125.895354,2.43242809 125.468362,2.44620029 124.044842,2.51114935 C122.728605,2.57116829 122.01379,2.79109481 121.538086,2.97597456 C120.907941,3.22087325 120.458228,3.51341197 119.985847,3.98584673 C119.513412,4.45822789 119.220873,4.9079412 118.975975,5.53808642 C118.791095,6.01379006 118.571168,6.72860486 118.511149,8.04484153 C118.4462,9.46836204 118.432428,9.89535389 118.432428,13.5000268 C118.432428,17.1046461 118.4462,17.531638 118.511149,18.9551585 C118.571168,20.2713951 118.791095,20.9862099 118.975975,21.4619136 C119.220873,22.0920588 119.513466,22.5417721 119.985847,23.0141533 C120.458228,23.486588 120.907941,23.7791267 121.538086,24.0240254 C122.01379,24.2089052 122.728605,24.4288317 124.044842,24.4888506 C125.468201,24.5537997 125.895086,24.5675719 129.500027,24.5675719 C133.104914,24.5675719 133.531852,24.5537997 134.955158,24.4888506 C136.271395,24.4288317 136.98621,24.2089052 137.461914,24.0240254 C138.092059,23.7791267 138.541772,23.486588 139.014153,23.0141533 C139.486588,22.5417721 139.779127,22.0920588 140.024025,21.4619136 C140.208905,20.9862099 140.428832,20.2713951 140.488851,18.9551585 C140.5538,17.531638 140.567572,17.1046461 140.567572,13.5000268 C140.567572,9.89535389 140.5538,9.46836204 140.488851,8.04484153 C140.428832,6.72860486 140.208905,6.01379006 140.024025,5.53808642 C139.779127,4.9079412 139.486588,4.45822789 139.014153,3.98584673 C138.541772,3.51341197 138.092059,3.22087325 137.461914,2.97597456 C136.98621,2.79109481 136.271395,2.57116829 134.955158,2.51114935 C133.531638,2.44620029 133.104646,2.43242809 129.500027,2.43242809 Z M129.500027,6.56757191 C133.328699,6.56757191 136.432428,9.67130107 136.432428,13.5000268 C136.432428,17.3286989 133.328699,20.4324281 129.500027,20.4324281 C125.671301,20.4324281 122.567572,17.3286989 122.567572,13.5000268 C122.567572,9.67130107 125.671301,6.56757191 129.500027,6.56757191 Z M129.500027,18 C131.985293,18 134,15.985293 134,13.5000268 C134,11.014707 131.985293,9 129.500027,9 C127.014707,9 125,11.014707 125,13.5000268 C125,15.985293 127.014707,18 129.500027,18 Z M138.326347,6.29368194 C138.326347,7.18839277 137.601029,7.91365728 136.706318,7.91365728 C135.811661,7.91365728 135.086343,7.18839277 135.086343,6.29368194 C135.086343,5.3989711 135.811661,4.673653 136.706318,4.673653 C137.601029,4.673653 138.326347,5.3989711 138.326347,6.29368194 Z" id="Instagram"></path>
            </g>
        </g>
    </g>
</svg>