<?xml version="1.0" encoding="UTF-8"?>
<svg width="27px" height="27px" viewBox="0 0 27 27" version="1.1" xmlns="http://www.w3.org/2000/svg" xmlns:xlink="http://www.w3.org/1999/xlink">
    <!-- Generator: Sketch 47.1 (45422) - http://www.bohemiancoding.com/sketch -->
    <title>Pinterest-color</title>
    <desc>Created with Sketch.</desc>
    <defs></defs>
    <g id="Symbols" stroke="none" stroke-width="1" fill="none" fill-rule="evenodd">
        <g id="HEADER" transform="translate(-880.000000, -30.000000)" fill="#FCFAF1">
            <g id="LOGO-RS" transform="translate(707.000000, 30.000000)">
                <path d="M173,13.5007938 C173,19.0271653 176.324396,23.7772094 181.082378,25.8648792 C181.044276,24.9234433 181.076028,23.78991 181.315752,22.7643323 C181.576116,21.668901 183.052567,15.4090669 183.052567,15.4090669 C183.052567,15.4090669 182.622332,14.5470101 182.622332,13.272182 C182.622332,11.2718292 183.782854,9.77791498 185.225966,9.77791498 C186.453166,9.77791498 187.046922,10.7002999 187.046922,11.8052567 C187.046922,13.0388075 186.259481,14.8851649 185.854648,16.5949903 C185.516493,18.0285765 186.572235,19.1954489 187.985183,19.1954489 C190.542777,19.1954489 192.265303,15.9107426 192.265303,12.0179926 C192.265303,9.0603281 190.272888,6.84565179 186.648439,6.84565179 C182.554066,6.84565179 180.002822,9.89857118 180.002822,13.3086964 C180.002822,14.486682 180.348915,15.3153995 180.891868,15.9567825 C181.142706,16.2536603 181.176045,16.3711413 181.085553,16.7108838 C181.02205,16.9569589 180.872817,17.5570647 180.810901,17.7936144 C180.720409,18.1349444 180.44417,18.2587758 180.136179,18.1317693 C178.248545,17.3617922 177.370612,15.2963486 177.370612,12.9737167 C177.370612,9.13970718 180.604516,4.53889575 187.018345,4.53889575 C192.173223,4.53889575 195.565885,8.27130005 195.565885,12.2735932 C195.565885,15.2283019 194.649768,17.7659649 193.085763,19.4322736 C191.846366,20.7527424 190.200108,21.5260187 188.280473,21.5260187 C186.82466,21.5260187 185.45299,20.7385782 184.983066,19.8447698 C184.983066,19.8447698 184.1988,22.9548421 184.033692,23.554948 C183.747927,24.5948139 183.187511,25.6362674 182.674722,26.445934 C183.889222,26.8047275 185.171988,27 186.500794,27 C193.956077,27 200,20.9560769 200,13.5007938 C200,6.04392309 193.956077,0 186.500794,0 C179.045511,0 173,6.04392309 173,13.5007938 Z" id="Pinterest"></path>
            </g>
        </g>
    </g>
</svg>