<?xml version="1.0" encoding="UTF-8"?>
<svg width="27px" height="27px" viewBox="0 0 27 27" version="1.1" xmlns="http://www.w3.org/2000/svg" xmlns:xlink="http://www.w3.org/1999/xlink">
    <!-- Generator: Sketch 47.1 (45422) - http://www.bohemiancoding.com/sketch -->
    <title>Twitter-color</title>
    <desc>Created with Sketch.</desc>
    <defs></defs>
    <g id="Symbols" stroke="none" stroke-width="1" fill="none" fill-rule="evenodd">
        <g id="HEADER" transform="translate(-766.000000, -30.000000)" fill="#FCFAF1">
            <g id="LOGO-RS" transform="translate(707.000000, 30.000000)">
                <path d="M86,3.19631636 C85.0079239,3.73846154 83.9397781,4.10509209 82.8193344,4.26890574 C83.9635499,3.42643554 84.8415214,2.09057421 85.2551506,0.499241603 C84.1838352,1.27930661 83,1.8468039 81.7353407,2.15102925 C80.7274168,0.826868906 79.2868463,0 77.6925515,0 C74.6354992,0 72.155309,3.05200433 72.155309,6.81581798 C72.155309,7.35016251 72.2028526,7.86890574 72.2979398,8.36814735 C67.6941363,8.08342362 63.6133122,5.37269772 60.8795563,1.24420368 C60.4025357,2.25438787 60.1299525,3.42643554 60.1299525,4.67453954 C60.1299525,7.03813651 61.1077655,9.1248104 62.5942948,10.3475623 C61.6877971,10.3144095 60.8320127,10.0043337 60.0839937,9.49729144 L60.0839937,9.58114843 C60.0839937,12.8847237 61.9936609,15.6403034 64.5293185,16.2643554 C64.0649762,16.4242687 63.5752773,16.5042254 63.0697306,16.5042254 C62.7131537,16.5042254 62.3645008,16.4632719 62.0269414,16.3833153 C62.7321712,19.0901408 64.7765452,21.0617551 67.2012678,21.1144095 C65.3058637,22.943662 62.9160063,24.0338028 60.3217116,24.0338028 C59.8748019,24.0338028 59.4326466,24.0026002 59,23.940195 C61.451664,25.8708559 64.3645008,27 67.4912837,27 C77.681458,27 83.251981,16.6153846 83.251981,7.60758397 C83.251981,7.31115926 83.2472266,7.01473456 83.2377179,6.72416035 C84.3201268,5.76273023 85.2599049,4.56338028 86,3.19631636" id="Twitter"></path>
            </g>
        </g>
    </g>
</svg>